<svg xmlns="http://www.w3.org/2000/svg" viewBox="0 0 180 300" preserveAspectRatio="xMidYMid meet" role="img" aria-label="Realistic semi-painted elderly antique-shop owner Mabel">
  <defs><linearGradient id="skin" x1="0" x2="1"><stop stop-color="#8a5a45"/><stop offset=".45" stop-color="#d0a07e"/><stop offset="1" stop-color="#684032"/></linearGradient><radialGradient id="hair" cx="50%" cy="20%" r="70%"><stop stop-color="#eee5d9"/><stop offset=".48" stop-color="#8c8377"/><stop offset="1" stop-color="#453d37"/></radialGradient><linearGradient id="dress" x1="0" x2="1"><stop stop-color="#231010"/><stop offset=".5" stop-color="#71443a"/><stop offset="1" stop-color="#1a0b0b"/></linearGradient></defs>
  <ellipse cx="92" cy="283" rx="66" ry="13" fill="#050303" opacity=".42"/>
  <path d="M44 126c-22 45-28 99-17 150h132c10-54 3-106-20-150-25-22-70-22-95 0z" fill="url(#dress)"/>
  <path d="M58 134l34 52 32-52" fill="#e8c18f"/>
  <path d="M41 153c-23 27-30 68-21 108l29-7c-3-34 5-59 20-80zM142 153c24 27 31 68 21 108l-28-7c3-34-5-59-20-80z" fill="#5b312c"/>
  <path d="M39 43c-28 32-31 82-4 117 22 20 91 20 113 0 27-36 25-86-4-117-29-25-76-25-105 0z" fill="url(#hair)"/>
  <path d="M50 73c-7 52 14 86 43 88 31-1 53-37 45-88-25-18-64-18-88 0z" fill="url(#skin)"/>
  <path d="M49 83c26-20 65-22 91-3-4-47-86-57-91 3z" fill="#d6cfc4"/>
  <ellipse cx="74" cy="107" rx="4" ry="6" fill="#21120c"/><ellipse cx="109" cy="107" rx="4" ry="6" fill="#21120c"/>
  <path d="M91 115l-5 18h10" fill="none" stroke="#794638" stroke-width="3"/><path d="M74 144c12 9 25 10 37 0" fill="none" stroke="#783638" stroke-width="4" stroke-linecap="round"/><path d="M58 97c16-8 31-9 44-7M96 90c18-1 34 2 46 9" stroke="#5f574f" stroke-width="5" stroke-linecap="round" opacity=".75"/>
</svg>
