<svg xmlns="http://www.w3.org/2000/svg" viewBox="0 0 1200 720" preserveAspectRatio="xMidYMid slice" role="img" aria-label="Cinematic realistic upstairs antique shop office with rain window, carved desk, portrait, safe, books, lamplight, wood grain, dust, and polished floor reflections">
  <defs>
    <filter id="grain"><feTurbulence type="fractalNoise" baseFrequency=".78" numOctaves="5" seed="59"/><feColorMatrix type="saturate" values="0"/><feComponentTransfer><feFuncA type="table" tableValues="0 .17"/></feComponentTransfer></filter>
    <filter id="blur"><feGaussianBlur stdDeviation="2.4"/></filter>
    <filter id="dust"><feTurbulence type="fractalNoise" baseFrequency=".013 .038" numOctaves="3" seed="71"/><feColorMatrix type="matrix" values="1 0 0 0 0.9  0 1 0 0 0.76  0 0 1 0 0.5  0 0 0 .14 0"/></filter>
    <linearGradient id="wall" y1="0" y2="1"><stop stop-color="#735038"/><stop offset=".42" stop-color="#372116"/><stop offset=".58" stop-color="#140907"/><stop offset="1" stop-color="#684229"/></linearGradient>
    <linearGradient id="floor" x1="0" x2="1"><stop stop-color="#23110a"/><stop offset=".22" stop-color="#5a321e"/><stop offset=".52" stop-color="#9a6339"/><stop offset=".76" stop-color="#4c2918"/><stop offset="1" stop-color="#180a05"/></linearGradient>
    <linearGradient id="oak" x1="0" x2="1"><stop stop-color="#170905"/><stop offset=".18" stop-color="#61331d"/><stop offset=".52" stop-color="#ae7544"/><stop offset=".82" stop-color="#442112"/><stop offset="1" stop-color="#100604"/></linearGradient>
    <linearGradient id="brass" x1="0" x2="1"><stop stop-color="#704719"/><stop offset=".5" stop-color="#e5bb61"/><stop offset="1" stop-color="#5a3514"/></linearGradient>
    <linearGradient id="window" y1="0" y2="1"><stop stop-color="#324656"/><stop offset=".72" stop-color="#131e26"/><stop offset="1" stop-color="#07090b"/></linearGradient>
    <radialGradient id="lampglow" cx="54%" cy="45%" r="66%"><stop stop-color="#ffefb6" stop-opacity=".72"/><stop offset=".28" stop-color="#d18b3a" stop-opacity=".28"/><stop offset="1" stop-color="#000" stop-opacity=".58"/></radialGradient>
    <radialGradient id="vignette" cx="50%" cy="48%" r="70%"><stop stop-color="#000" stop-opacity="0"/><stop offset=".67" stop-color="#000" stop-opacity=".27"/><stop offset="1" stop-color="#000" stop-opacity=".8"/></radialGradient>
    <pattern id="boards" width="150" height="720" patternUnits="userSpaceOnUse"><path d="M0 430v290M72 430v290M149 430v290" stroke="#100603" stroke-width="4" opacity=".42"/><path d="M13 514c42-17 78-12 125 5M18 620c34 15 76 11 118-7M10 684c50-11 88-6 128 6" fill="none" stroke="#d5a06a" stroke-width="2" opacity=".18"/></pattern>
  </defs>
  <rect width="1200" height="720" fill="url(#wall)"/>
  <path d="M0 430h1200v290H0z" fill="url(#floor)"/><rect width="1200" height="720" fill="url(#boards)" opacity=".9"/><path d="M0 430h1200" stroke="#0d0402" stroke-width="18"/>
  <g transform="translate(74 62)"><rect width="248" height="184" rx="4" fill="#090505" stroke="#160805" stroke-width="14"/><rect x="18" y="18" width="212" height="148" fill="url(#window)" opacity=".82"/><path d="M124 18v148M18 92h212" stroke="#170905" stroke-width="10"/><g stroke="#c7d5de" stroke-opacity=".42" stroke-width="3" stroke-linecap="round"><path d="M44 24c-23 74 13 104-12 138"/><path d="M98 20c-10 62 15 92 1 142"/><path d="M168 26c-18 50 21 88 5 137"/><path d="M218 38c-26 54 8 94-14 116"/></g><path d="M34 132c58-42 120-43 176 4" stroke="#c08d4b" stroke-width="9" opacity=".22"/></g>
  <g transform="translate(768 54)"><rect width="198" height="242" fill="url(#brass)" stroke="#120704" stroke-width="14"/><rect x="20" y="20" width="158" height="202" fill="#3d2a21"/><ellipse cx="99" cy="88" rx="40" ry="52" fill="#d2a17c"/><path d="M56 86c16-60 84-68 100 1" fill="#322018"/><path d="M48 184c30-68 70-72 104 0" fill="#3a2922"/><path d="M28 203h142" stroke="#e4b95e" stroke-width="5" opacity=".48"/></g>
  <g transform="translate(154 292)"><rect width="172" height="245" fill="url(#oak)" stroke="#100604" stroke-width="10"/><path d="M0 60h172M0 120h172M0 180h172M86 0v245" stroke="#170905" stroke-width="6" opacity=".72"/><g fill="#2b3b2e" stroke="#140805" stroke-width="3"><rect x="22" y="17" width="28" height="42"/><rect x="54" y="11" width="24" height="48" fill="#683227"/><rect x="102" y="18" width="34" height="41" fill="#51402a"/></g><circle cx="58" cy="91" r="7" fill="url(#brass)"/><circle cx="114" cy="91" r="7" fill="url(#brass)"/></g>
  <g transform="translate(300 374)"><rect width="552" height="190" rx="12" fill="url(#oak)" stroke="#100604" stroke-width="11"/><path d="M8 10c152 18 355 14 532-2" stroke="#e5b96a" stroke-opacity=".34" stroke-width="6"/><rect x="342" y="58" width="150" height="78" fill="#4a2918" stroke="#130704" stroke-width="6"/><circle cx="417" cy="98" r="9" fill="url(#brass)"/><rect x="42" y="43" width="220" height="76" fill="#28140c" opacity=".24"/><path d="M52 139h446" stroke="#d4a356" stroke-width="4" opacity=".3"/><g transform="translate(50 -52)"><path d="M0 62h164v46H0z" fill="#17100d" stroke="#080302" stroke-width="5"/><circle cx="26" cy="86" r="6" fill="#e6d9bf"/><circle cx="50" cy="86" r="6" fill="#e6d9bf"/><circle cx="74" cy="86" r="6" fill="#e6d9bf"/><circle cx="98" cy="86" r="6" fill="#e6d9bf"/><rect x="30" width="104" height="62" fill="#d8c49a" stroke="#21120b" stroke-width="5"/><path d="M45 16h72M45 28h66M45 40h78" stroke="#7c5b35" stroke-width="3" opacity=".55"/></g></g>
  <g transform="translate(590 264)"><path d="M40 0h84l27 76H13z" fill="#345f3c" stroke="#160805" stroke-width="7"/><rect x="76" y="72" width="12" height="102" fill="url(#brass)"/><ellipse cx="82" cy="176" rx="60" ry="15" fill="#25130c"/><ellipse cx="82" cy="46" rx="140" ry="96" fill="#ffd178" opacity=".2" filter="url(#blur)"/></g>
  <g transform="translate(930 214)"><rect width="130" height="130" rx="10" fill="#17100d" stroke="#0d0402" stroke-width="9" opacity=".82"/><circle cx="65" cy="65" r="29" fill="none" stroke="url(#brass)" stroke-width="8"/><circle cx="65" cy="65" r="9" fill="#17100e"/><path d="M65 65l18-19M65 65l-23 7" stroke="#cfa052" stroke-width="5" stroke-linecap="round"/></g>
  <rect width="1200" height="720" fill="url(#lampglow)"/>
  <rect width="1200" height="720" filter="url(#dust)" opacity=".6"/>
  <rect width="1200" height="720" filter="url(#grain)" opacity=".54"/>
  <rect width="1200" height="720" fill="url(#vignette)"/>
</svg>
