<svg xmlns="http://www.w3.org/2000/svg" viewBox="0 0 1200 720" preserveAspectRatio="xMidYMid slice"><defs><linearGradient id="wall" y1="0" y2="1"><stop stop-color="#4e3425"/><stop offset=".58" stop-color="#2b1a13"/><stop offset=".59" stop-color="#150c09"/><stop offset="1" stop-color="#57351f"/></linearGradient><linearGradient id="wood" x1="0" x2="1"><stop stop-color="#21120b"/><stop offset=".5" stop-color="#895735"/><stop offset="1" stop-color="#1b0e09"/></linearGradient><radialGradient id="bulb" cx="14%" cy="12%" r="55%"><stop stop-color="#fff0b8" stop-opacity=".9"/><stop offset=".28" stop-color="#d9963a" stop-opacity=".35"/><stop offset="1" stop-color="#000" stop-opacity=".45"/></radialGradient><radialGradient id="v" cx="50%" cy="50%" r="60%"><stop stop-color="#000" stop-opacity="0"/><stop offset="1" stop-color="#000" stop-opacity=".55"/></radialGradient></defs><rect width="1200" height="720" fill="url(#wall)"/><path d="M0 452h1200v268H0z" fill="#50301e"/><path d="M0 456h1200" stroke="#120907" stroke-width="16"/><rect width="1200" height="720" fill="url(#bulb)"/><circle cx="145" cy="82" r="45" fill="#ffd98e" opacity=".75"/><circle cx="145" cy="82" r="19" fill="#fff5c6"/><g transform="translate(72 136)"><rect width="594" height="330" fill="#1b0e09" opacity=".4"/><g fill="url(#wood)" stroke="#150b08" stroke-width="9"><rect y="82" width="594" height="29"/><rect y="192" width="594" height="29"/><rect y="302" width="594" height="29"/><rect width="32" height="331"/><rect x="562" width="32" height="331"/></g><g stroke="#21120c" stroke-width="6"><rect x="64" y="35" width="136" height="68" fill="#8b5a37"/><path d="M66 37l132 64M198 37L66 101"/><rect x="242" y="130" width="152" height="65" fill="#745030"/><rect x="282" y="238" width="120" height="61" fill="#8b5a37"/><path d="M284 240l118 58M402 240l-118 58"/><path d="M438 133l92 10-10 58-83-5z" fill="#d8bd8c"/><rect x="454" y="229" width="100" height="52" rx="8" fill="#63341f"/></g><g fill="#314a32"><rect x="480" y="124" width="34" height="82"/><rect x="520" y="112" width="32" height="94"/></g><ellipse cx="160" cy="272" rx="43" ry="34" fill="#914330" stroke="#160b08" stroke-width="6"/></g><g transform="translate(884 88) skewY(-7)"><path d="M0 0h150v390H0z" fill="#21120b"/><g fill="#75492d"><rect y="22" width="150" height="22"/><rect y="70" width="150" height="22"/><rect y="118" width="150" height="22"/><rect y="166" width="150" height="22"/><rect y="214" width="150" height="22"/><rect y="262" width="150" height="22"/><rect y="310" width="150" height="22"/></g><path d="M0 0h150v390" fill="none" stroke="#120907" stroke-width="8"/></g><g transform="translate(842 424)"><path d="M0 98c0-65 54-98 122-98s122 33 122 98v34H0z" fill="#3c2014" stroke="#120907" stroke-width="8"/><path d="M24 90h196" stroke="#d3a14c" stroke-width="9"/><circle cx="122" cy="98" r="13" fill="#d9a84e"/></g><path d="M650 568c105-42 248-43 355 5" stroke="#1c0d09" stroke-width="20" opacity=".28"/><g fill="#dac496" stroke="#4e2d1a" stroke-width="5"><path d="M500 330l95 8-8 62-86-5z"/><path d="M342 396l84-12 10 58-82 14z"/><path d="M223 470l88 6-13 54-80-8z"/></g><g stroke="#cda052" stroke-width="4" opacity=".7"><path d="M115 520c118-30 255-26 384 6"/><path d="M95 556c122-22 260-18 410 10"/></g><rect width="1200" height="720" fill="url(#v)"/></svg>