<svg xmlns="http://www.w3.org/2000/svg" viewBox="0 0 1000 620" preserveAspectRatio="xMidYMid slice">
  <defs><linearGradient id="wall" y1="0" y2="1"><stop stop-color="#6a442d"/><stop offset=".58" stop-color="#41271a"/><stop offset=".59" stop-color="#20120d"/><stop offset="1" stop-color="#68422a"/></linearGradient><radialGradient id="light" cx="46%" cy="15%" r="58%"><stop stop-color="#ffe8aa" stop-opacity=".55"/><stop offset="1" stop-color="#000" stop-opacity="0"/></radialGradient><linearGradient id="wood" x1="0" x2="1"><stop stop-color="#2d180f"/><stop offset=".5" stop-color="#8d5632"/><stop offset="1" stop-color="#25130c"/></linearGradient></defs>
  <rect width="1000" height="620" fill="url(#wall)"/><rect width="1000" height="620" fill="url(#light)"/><path d="M0 365h1000v255H0z" fill="#633e28"/><path d="M0 368h1000" stroke="#1c100b" stroke-width="12"/>
  <rect x="76" y="66" width="190" height="145" fill="#26333d" stroke="#29170f" stroke-width="14"/><path d="M171 66v145M76 139h190" stroke="#29170f" stroke-width="9"/><path d="M76 66h190v145H76z" fill="#d5b071" opacity=".12"/>
  <rect x="715" y="82" width="132" height="165" fill="#8c694b" stroke="#2a170f" stroke-width="14"/><ellipse cx="781" cy="149" rx="36" ry="44" fill="#c79b76"/><path d="M744 184c25-28 51-29 79 0v36h-79z" fill="#4a2b22"/><path d="M745 133c23-49 74-33 78 1-22-13-50-12-78-1z" fill="#34251f"/>
  <rect x="309" y="350" width="465" height="158" rx="10" fill="url(#wood)" stroke="#1d0f09" stroke-width="8"/><rect x="606" y="403" width="130" height="64" fill="#4a2a1b" stroke="#21120c" stroke-width="5"/><circle cx="671" cy="435" r="8" fill="#d1a14d"/><path d="M365 310h112c12 0 23 10 23 23v45H342v-45c0-13 10-23 23-23z" fill="#201d1b" stroke="#0f0b09" stroke-width="6"/><g fill="#dfd1b9"><circle cx="378" cy="359" r="5"/><circle cx="398" cy="359" r="5"/><circle cx="418" cy="359" r="5"/><circle cx="438" cy="359" r="5"/></g>
  <path d="M580 310c-18-15-4-52 34-53 38 1 51 38 34 53z" fill="#d9bd69" stroke="#2d190f" stroke-width="7"/><path d="M614 310v67" stroke="#c49a43" stroke-width="9"/><ellipse cx="614" cy="386" rx="46" ry="10" fill="#4b2a19"/>
  <rect x="747" y="252" width="112" height="104" rx="10" fill="#4f4f4f" stroke="#241a16" stroke-width="10" opacity=".85"/><circle cx="803" cy="304" r="22" fill="#1e1917" stroke="#b78d45" stroke-width="7"/>
</svg>
