<svg xmlns="http://www.w3.org/2000/svg" viewBox="0 0 1200 720" preserveAspectRatio="xMidYMid slice" role="img" aria-label="Realistic cinematic back storage room with antique shelves, crates, staircase, and rain-dark shadows">
  <defs>
    <filter id="grain"><feTurbulence type="fractalNoise" baseFrequency=".9" numOctaves="4" seed="17"/><feColorMatrix type="saturate" values="0"/><feComponentTransfer><feFuncA type="table" tableValues="0 .18"/></feComponentTransfer></filter>
    <filter id="soft"><feGaussianBlur stdDeviation="1.2"/></filter>
    <linearGradient id="wall" y1="0" y2="1"><stop stop-color="#4b3328"/><stop offset=".56" stop-color="#24140f"/><stop offset=".57" stop-color="#0d0705"/><stop offset="1" stop-color="#4d2f20"/></linearGradient>
    <linearGradient id="floor" x1="0" x2="1"><stop stop-color="#24120b"/><stop offset=".42" stop-color="#6c4227"/><stop offset=".7" stop-color="#432416"/><stop offset="1" stop-color="#1a0d08"/></linearGradient>
    <linearGradient id="wood" x1="0" x2="1"><stop stop-color="#180b07"/><stop offset=".18" stop-color="#5a321f"/><stop offset=".52" stop-color="#a16c43"/><stop offset=".82" stop-color="#452314"/><stop offset="1" stop-color="#120805"/></linearGradient>
    <radialGradient id="bulb" cx="14%" cy="12%" r="62%"><stop stop-color="#fff1bd" stop-opacity=".95"/><stop offset=".18" stop-color="#ffd082" stop-opacity=".52"/><stop offset=".48" stop-color="#8e5128" stop-opacity=".18"/><stop offset="1" stop-color="#020101" stop-opacity=".72"/></radialGradient>
    <radialGradient id="vignette" cx="48%" cy="48%" r="68%"><stop stop-color="#000" stop-opacity="0"/><stop offset=".68" stop-color="#000" stop-opacity=".22"/><stop offset="1" stop-color="#000" stop-opacity=".78"/></radialGradient>
  </defs>
  <rect width="1200" height="720" fill="url(#wall)"/>
  <path d="M0 450h1200v270H0z" fill="url(#floor)"/>
  <g opacity=".32" stroke="#1a0c07" stroke-width="3"><path d="M0 498c165-30 346-33 552 4 226 39 406 30 648-17"/><path d="M0 554c206-31 390-21 586 12 242 38 441 16 614-18"/><path d="M0 612c199-25 382-24 582 8 210 34 421 30 618-13"/></g>
  <path d="M0 452h1200" stroke="#0b0403" stroke-width="18"/>
  <rect width="1200" height="720" fill="url(#bulb)"/>
  <g transform="translate(94 118)">
    <rect x="-18" y="-18" width="632" height="374" fill="#0c0503" opacity=".48"/>
    <g fill="url(#wood)" stroke="#100604" stroke-width="10"><rect y="74" width="594" height="30"/><rect y="184" width="594" height="30"/><rect y="296" width="594" height="32"/><rect x="0" width="32" height="330"/><rect x="562" width="32" height="330"/></g>
    <g stroke="#1a0b06" stroke-width="5"><rect x="62" y="28" width="136" height="70" fill="#8a5634"/><path d="M64 30l132 66M198 31L64 96"/><rect x="238" y="125" width="156" height="66" fill="#6c462b"/><rect x="276" y="236" width="128" height="62" fill="#9a633b"/><path d="M278 238l126 59M404 238l-126 59"/><path d="M432 128l102 12-10 58-96-7z" fill="#d8bd8c"/><rect x="452" y="226" width="104" height="54" rx="8" fill="#59301d"/><path d="M74 230h92v52H74z" fill="#503825"/><path d="M92 135h44v74H92z" fill="#273a2a"/><path d="M138 133h39v76h-39z" fill="#512a22"/></g>
    <g fill="#d7c08c" opacity=".95" stroke="#3b2114" stroke-width="4"><path d="M404 250l78-12 10 52-77 15z"/><path d="M332 252l55 7-6 42-54-5z"/></g>
  </g>
  <g transform="translate(876 76) skewY(-7)"><path d="M0 0h158v402H0z" fill="#160b07"/><g fill="#71462b"><rect y="28" width="158" height="20"/><rect y="78" width="158" height="20"/><rect y="128" width="158" height="20"/><rect y="178" width="158" height="20"/><rect y="228" width="158" height="20"/><rect y="278" width="158" height="20"/><rect y="328" width="158" height="20"/></g><path d="M0 0h158v402" fill="none" stroke="#080302" stroke-width="9"/><path d="M158 0l74 42v402l-74-42z" fill="#0a0403" opacity=".55"/></g>
  <g transform="translate(838 422)"><path d="M0 102c0-68 56-102 126-102s126 34 126 102v36H0z" fill="#3b2015" stroke="#0e0503" stroke-width="9"/><path d="M24 94h204" stroke="#d0a051" stroke-width="10"/><circle cx="126" cy="103" r="14" fill="#d5a14b"/><path d="M28 46c54-22 136-23 196 0" stroke="#8b5937" stroke-width="9" opacity=".62"/></g>
  <g fill="#d9c292" stroke="#432717" stroke-width="5"><path d="M500 336l104 8-10 66-96-5z"/><path d="M338 406l90-14 12 62-88 15z"/><path d="M220 484l94 8-14 58-88-10z"/></g>
  <circle cx="146" cy="80" r="48" fill="#ffd88e" opacity=".72" filter="url(#soft)"/><circle cx="146" cy="80" r="16" fill="#fff7cf"/><rect width="1200" height="720" filter="url(#grain)" opacity=".45"/><rect width="1200" height="720" fill="url(#vignette)"/>
</svg>
