<svg xmlns="http://www.w3.org/2000/svg" viewBox="0 0 1200 720" preserveAspectRatio="xMidYMid slice"><defs><linearGradient id="wall" y1="0" y2="1"><stop stop-color="#6a442c"/><stop offset=".55" stop-color="#3b2418"/><stop offset=".56" stop-color="#180d09"/><stop offset="1" stop-color="#604028"/></linearGradient><linearGradient id="wood" x1="0" x2="1"><stop stop-color="#22110b"/><stop offset=".5" stop-color="#8e5a34"/><stop offset="1" stop-color="#1b0d08"/></linearGradient><radialGradient id="lamp" cx="52%" cy="28%" r="55%"><stop stop-color="#ffe9ac" stop-opacity=".72"/><stop offset=".44" stop-color="#c88a3a" stop-opacity=".18"/><stop offset="1" stop-color="#000" stop-opacity=".35"/></radialGradient><radialGradient id="v" cx="50%" cy="50%" r="62%"><stop stop-color="#000" stop-opacity="0"/><stop offset="1" stop-color="#000" stop-opacity=".55"/></radialGradient></defs><rect width="1200" height="720" fill="url(#wall)"/><path d="M0 430h1200v290H0z" fill="#654127"/><path d="M0 436h1200" stroke="#120806" stroke-width="16"/><rect width="1200" height="720" fill="url(#lamp)"/><g transform="translate(84 76)"><rect width="220" height="160" fill="#1c2730" stroke="#1b0d08" stroke-width="13"/><path d="M110 0v160M0 80h220" stroke="#1b0d08" stroke-width="10"/><path d="M0 0l220 160M220 0L0 160" stroke="#ffe5a5" stroke-opacity=".09" stroke-width="6"/><path d="M35 118c45-42 98-43 153 2" stroke="#b88448" stroke-width="10" opacity=".35"/></g><g transform="translate(790 72)"><rect width="170" height="208" fill="#a4753d" stroke="#1a0d08" stroke-width="13"/><rect x="18" y="18" width="134" height="172" fill="#493023"/><ellipse cx="85" cy="78" rx="34" ry="45" fill="#d6a37c"/><path d="M48 75c13-54 72-61 87 0" fill="#3a251d"/><path d="M44 160c24-59 57-64 88 0" fill="#3c2b23"/></g><g transform="translate(316 382)"><rect width="512" height="176" rx="10" fill="url(#wood)" stroke="#150a07" stroke-width="9"/><path d="M0 0h512" stroke="#e1b468" stroke-opacity=".35" stroke-width="5"/><rect x="330" y="58" width="136" height="70" fill="#4d2b1a" stroke="#160b07" stroke-width="5"/><circle cx="398" cy="93" r="9" fill="#d6a44b"/><g transform="translate(48 -46)"><path d="M0 58h142v42H0z" fill="#191311" stroke="#090504" stroke-width="5"/><circle cx="25" cy="82" r="6" fill="#e5d8be"/><circle cx="45" cy="82" r="6" fill="#e5d8be"/><circle cx="65" cy="82" r="6" fill="#e5d8be"/><circle cx="85" cy="82" r="6" fill="#e5d8be"/><rect x="26" width="90" height="58" fill="#d8c49b" stroke="#23140c" stroke-width="5"/></g></g><g transform="translate(592 274)"><path d="M38 0h78l24 72H14z" fill="#2e5b3b" stroke="#1a0d08" stroke-width="7"/><rect x="70" y="70" width="12" height="96" fill="#c99b40"/><ellipse cx="76" cy="170" rx="55" ry="14" fill="#2b1810"/><ellipse cx="76" cy="40" rx="122" ry="88" fill="#ffd178" opacity=".16"/></g><g transform="translate(164 300)"><rect width="155" height="230" fill="url(#wood)" stroke="#150a07" stroke-width="9"/><path d="M0 55h155M0 110h155M0 165h155M77 0v230" stroke="#190c07" stroke-width="5" opacity=".75"/><circle cx="52" cy="84" r="6" fill="#d4a34b"/><circle cx="103" cy="84" r="6" fill="#d4a34b"/></g><g transform="translate(930 214)"><rect width="122" height="122" rx="9" fill="#222" stroke="#120806" stroke-width="9" opacity=".6"/><circle cx="61" cy="61" r="25" fill="none" stroke="#d6a44b" stroke-width="8"/><circle cx="61" cy="61" r="9" fill="#19110e"/></g><g stroke="#422617" stroke-width="5" opacity=".45"><path d="M170 618c170-31 352-24 540 18"/><path d="M210 660c170-24 315-20 508 12"/></g><rect width="1200" height="720" fill="url(#v)"/></svg>