<svg xmlns="http://www.w3.org/2000/svg" viewBox="0 0 1000 620" preserveAspectRatio="xMidYMid slice">
  <defs>
    <linearGradient id="wall" y1="0" y2="1"><stop stop-color="#6b412b"/><stop offset=".58" stop-color="#3e2419"/><stop offset=".59" stop-color="#20120d"/><stop offset="1" stop-color="#6a4029"/></linearGradient>
    <radialGradient id="lamp" cx="52%" cy="15%" r="55%"><stop stop-color="#ffe4a2" stop-opacity=".7"/><stop offset=".52" stop-color="#9f6034" stop-opacity=".25"/><stop offset="1" stop-color="#160d09" stop-opacity=".3"/></radialGradient>
    <linearGradient id="wood" x1="0" x2="1"><stop stop-color="#2c170f"/><stop offset=".5" stop-color="#8d5834"/><stop offset="1" stop-color="#25130c"/></linearGradient>
  </defs>
  <rect width="1000" height="620" fill="url(#wall)"/>
  <rect width="1000" height="620" fill="url(#lamp)"/>
  <path d="M0 385h1000v235H0z" fill="#5d3725"/>
  <path d="M0 392h1000" stroke="#1c100b" stroke-width="12"/>
  <g opacity=".35" stroke="#8a5b3a" stroke-width="2"><path d="M85 0v384M179 0v384M284 0v384M392 0v384M501 0v384M617 0v384M724 0v384M840 0v384M934 0v384"/></g>
  <rect x="376" y="36" width="245" height="48" rx="5" fill="#b88937" stroke="#27150d" stroke-width="7"/>
  <text x="500" y="68" text-anchor="middle" font-family="Georgia,serif" font-size="28" font-weight="700" fill="#24140d">MABEL'S ANTIQUES</text>
  <g fill="url(#wood)" stroke="#21120c" stroke-width="6">
    <rect x="64" y="143" width="790" height="24" rx="3"/><rect x="64" y="258" width="790" height="24" rx="3"/>
    <rect x="60" y="128" width="25" height="186"/><rect x="830" y="128" width="25" height="186"/>
  </g>
  <g opacity=".98">
    <rect x="105" y="93" width="82" height="67" fill="#c8a568" stroke="#2b180f" stroke-width="9"/><rect x="705" y="91" width="105" height="76" fill="#8a6647" stroke="#2b180f" stroke-width="9"/>
    <ellipse cx="500" cy="124" rx="42" ry="45" fill="#3b2115"/><circle cx="500" cy="117" r="26" fill="#e7d8bd" stroke="#b8873c" stroke-width="7"/>
    <path d="M500 117v-15M500 117l15 10" stroke="#2b170e" stroke-width="4" stroke-linecap="round"/>
    <path d="M494 166c4 16 8 24 15 0" stroke="#d6a84d" stroke-width="6" fill="none"/>
  </g>
  <g>
    <rect x="96" y="316" width="140" height="145" rx="8" fill="url(#wood)" stroke="#21120c" stroke-width="7"/><circle cx="139" cy="386" r="7" fill="#d1a14d"/><circle cx="193" cy="386" r="7" fill="#d1a14d"/>
    <ellipse cx="305" cy="542" rx="210" ry="42" fill="#7c2f28" opacity=".7"/><path d="M108 183c30-45 61 10 28 45" fill="#44613d"/><rect x="300" y="182" width="30" height="80" fill="#784238"/><rect x="344" y="173" width="28" height="91" fill="#2c462c"/><ellipse cx="455" cy="218" rx="35" ry="30" fill="#eadfca" stroke="#8a5d2d" stroke-width="12"/>
    <path d="M654 196h108v55H654z" fill="#7e4327" stroke="#21120c" stroke-width="6"/><circle cx="681" cy="223" r="8" fill="#caa051"/><circle cx="737" cy="223" r="8" fill="#caa051"/>
  </g>
  <rect x="640" y="390" width="286" height="122" rx="9" fill="url(#wood)" stroke="#1d0f09" stroke-width="6"/><rect x="674" y="436" width="82" height="44" fill="#4a2a1b" stroke="#21120c" stroke-width="4"/><rect x="806" y="436" width="82" height="44" fill="#4a2a1b" stroke="#21120c" stroke-width="4"/><circle cx="715" cy="458" r="7" fill="#d1a14d"/><circle cx="847" cy="458" r="7" fill="#d1a14d"/>
  <path d="M930 250c22 34 28 98 17 172" stroke="#26150f" stroke-width="22"/><path d="M924 253c32 35 41 96 31 168" stroke="#7d4b2e" stroke-width="10"/>
  <rect x="0" y="0" width="1000" height="620" fill="none" stroke="#120a07" stroke-width="18" opacity=".3"/>
</svg>
