<svg xmlns="http://www.w3.org/2000/svg" viewBox="0 0 1000 620" preserveAspectRatio="xMidYMid slice">
  <defs><linearGradient id="wall" y1="0" y2="1"><stop stop-color="#4b3022"/><stop offset=".62" stop-color="#2b1a13"/><stop offset=".63" stop-color="#17100d"/><stop offset="1" stop-color="#573421"/></linearGradient><radialGradient id="bulb" cx="14%" cy="12%" r="42%"><stop stop-color="#ffe7a9" stop-opacity=".8"/><stop offset=".45" stop-color="#9d6336" stop-opacity=".25"/><stop offset="1" stop-color="#090605" stop-opacity=".2"/></radialGradient><linearGradient id="wood" x1="0" x2="1"><stop stop-color="#2a170f"/><stop offset=".55" stop-color="#8e5934"/><stop offset="1" stop-color="#22120c"/></linearGradient></defs>
  <rect width="1000" height="620" fill="url(#wall)"/><rect width="1000" height="620" fill="url(#bulb)"/><path d="M0 386h1000v234H0z" fill="#51301f"/><path d="M0 390h1000" stroke="#160d09" stroke-width="12"/>
  <circle cx="120" cy="74" r="38" fill="#ffd98e" opacity=".72"/><circle cx="120" cy="74" r="18" fill="#fff4bf"/>
  <g transform="translate(70 120)"><rect x="0" y="0" width="480" height="290" fill="#2d1b13" opacity=".48"/><g fill="url(#wood)" stroke="#21120c" stroke-width="8"><rect x="0" y="80" width="480" height="23"/><rect x="0" y="180" width="480" height="23"/><rect x="0" y="280" width="480" height="23"/><rect x="0" y="0" width="25" height="303"/><rect x="455" y="0" width="25" height="303"/></g><g stroke="#21120c" stroke-width="5"><rect x="50" y="31" width="115" height="60" fill="#8d5c38"/><path d="M52 33l111 56M162 33L51 89"/><rect x="205" y="122" width="130" height="58" fill="#765030"/><rect x="246" y="220" width="102" height="54" fill="#8d5c38"/><path d="M247 222l101 52M348 222l-100 52"/></g><rect x="195" y="38" width="54" height="70" fill="#ead9b9" rx="8"/><path d="M285 145l75 7-7 50-68-4z" fill="#dcc59a" stroke="#5a321d" stroke-width="5"/><rect x="370" y="124" width="32" height="77" fill="#314a32"/><ellipse cx="130" cy="248" rx="38" ry="34" fill="#8b402b" stroke="#1f110b" stroke-width="6"/></g>
  <g transform="translate(795 104) skewY(-7)"><path d="M0 0h115v345H0z" fill="#2a180f"/><g fill="#70462d"><rect y="25" width="115" height="20"/><rect y="67" width="115" height="20"/><rect y="109" width="115" height="20"/><rect y="151" width="115" height="20"/><rect y="193" width="115" height="20"/><rect y="235" width="115" height="20"/><rect y="277" width="115" height="20"/></g></g>
  <path d="M650 430c0-51 41-92 92-92s92 41 92 92v86H650z" fill="#5b3520" stroke="#1b0f0a" stroke-width="9"/><path d="M742 338v178" stroke="#1b0f0a" stroke-width="7"/><circle cx="742" cy="437" r="13" fill="#cda055"/>
</svg>
