<svg xmlns="http://www.w3.org/2000/svg" viewBox="0 0 1200 720" preserveAspectRatio="xMidYMid slice" role="img" aria-label="Realistic cinematic upstairs office with rain window, desk, portrait, safe, and lamplight">
  <defs>
    <filter id="grain"><feTurbulence type="fractalNoise" baseFrequency=".82" numOctaves="4" seed="29"/><feColorMatrix type="saturate" values="0"/><feComponentTransfer><feFuncA type="table" tableValues="0 .16"/></feComponentTransfer></filter>
    <filter id="blur"><feGaussianBlur stdDeviation="1.1"/></filter>
    <linearGradient id="wall" y1="0" y2="1"><stop stop-color="#68452f"/><stop offset=".54" stop-color="#342016"/><stop offset=".55" stop-color="#130906"/><stop offset="1" stop-color="#614029"/></linearGradient>
    <linearGradient id="wood" x1="0" x2="1"><stop stop-color="#170905"/><stop offset=".2" stop-color="#5d321d"/><stop offset=".54" stop-color="#9f6a3d"/><stop offset=".82" stop-color="#422112"/><stop offset="1" stop-color="#100604"/></linearGradient>
    <radialGradient id="lampglow" cx="54%" cy="42%" r="62%"><stop stop-color="#ffe9a8" stop-opacity=".72"/><stop offset=".36" stop-color="#d08d39" stop-opacity=".24"/><stop offset="1" stop-color="#000" stop-opacity=".5"/></radialGradient>
    <linearGradient id="window" y1="0" y2="1"><stop stop-color="#293746"/><stop offset=".7" stop-color="#121b22"/><stop offset="1" stop-color="#07090b"/></linearGradient>
    <radialGradient id="vignette" cx="50%" cy="48%" r="68%"><stop stop-color="#000" stop-opacity="0"/><stop offset=".68" stop-color="#000" stop-opacity=".24"/><stop offset="1" stop-color="#000" stop-opacity=".76"/></radialGradient>
  </defs>
  <rect width="1200" height="720" fill="url(#wall)"/><path d="M0 430h1200v290H0z" fill="#654126"/><path d="M0 436h1200" stroke="#0c0402" stroke-width="18"/>
  <g opacity=".34" stroke="#1b0b05" stroke-width="3"><path d="M120 610c160-28 330-22 520 10 192 30 338 28 492-12"/><path d="M86 660c226-30 426-18 628 12 182 28 318 16 486-24"/></g>
  <rect width="1200" height="720" fill="url(#lampglow)"/>
  <g transform="translate(82 70)"><rect width="234" height="172" fill="url(#window)" stroke="#170a05" stroke-width="14"/><path d="M117 0v172M0 86h234" stroke="#170a05" stroke-width="10"/><g stroke="#b8c8d9" stroke-opacity=".35" stroke-width="3"><path d="M38 8c-24 70 12 102-10 158"/><path d="M96 2c-10 52 14 91 0 164"/><path d="M174 4c-18 48 20 91 6 162"/><path d="M218 12c-28 53 8 93-16 146"/></g><path d="M32 130c48-44 108-45 170 4" stroke="#b88448" stroke-width="10" opacity=".28"/></g>
  <g transform="translate(784 62)"><rect width="188" height="232" fill="#9d6a37" stroke="#120704" stroke-width="14"/><rect x="20" y="20" width="148" height="192" fill="#3f2a20"/><ellipse cx="94" cy="86" rx="38" ry="50" fill="#d3a07b"/><path d="M52 84c15-58 80-66 96 0" fill="#332018"/><path d="M48 176c27-66 65-70 98 0" fill="#3b2a23"/><path d="M28 198h132" stroke="#d0a052" stroke-width="5" opacity=".5"/></g>
  <g transform="translate(310 378)"><rect width="530" height="184" rx="10" fill="url(#wood)" stroke="#100604" stroke-width="10"/><path d="M0 0h530" stroke="#e2b56a" stroke-opacity=".34" stroke-width="6"/><rect x="344" y="60" width="142" height="74" fill="#4a2918" stroke="#130704" stroke-width="6"/><circle cx="415" cy="97" r="9" fill="#d5a24a"/><rect x="40" y="42" width="210" height="74" fill="#28140c" opacity=".22"/><g transform="translate(46 -48)"><path d="M0 60h150v44H0z" fill="#17100d" stroke="#080302" stroke-width="5"/><circle cx="25" cy="84" r="6" fill="#e4d7bd"/><circle cx="47" cy="84" r="6" fill="#e4d7bd"/><circle cx="69" cy="84" r="6" fill="#e4d7bd"/><circle cx="91" cy="84" r="6" fill="#e4d7bd"/><rect x="28" width="94" height="60" fill="#d8c49a" stroke="#21120b" stroke-width="5"/></g></g>
  <g transform="translate(594 268)"><path d="M40 0h82l25 74H15z" fill="#2e5f3d" stroke="#160805" stroke-width="7"/><rect x="74" y="70" width="12" height="100" fill="#c7993f"/><ellipse cx="80" cy="174" rx="58" ry="15" fill="#25130c"/><ellipse cx="80" cy="43" rx="132" ry="94" fill="#ffd178" opacity=".18" filter="url(#blur)"/></g>
  <g transform="translate(160 294)"><rect width="166" height="240" fill="url(#wood)" stroke="#100604" stroke-width="10"/><path d="M0 58h166M0 116h166M0 174h166M83 0v240" stroke="#170905" stroke-width="6" opacity=".72"/><circle cx="55" cy="88" r="7" fill="#d2a04a"/><circle cx="111" cy="88" r="7" fill="#d2a04a"/></g>
  <g transform="translate(930 216)"><rect width="126" height="126" rx="9" fill="#17100d" stroke="#0d0402" stroke-width="9" opacity=".72"/><circle cx="63" cy="63" r="27" fill="none" stroke="#d1a04d" stroke-width="8"/><circle cx="63" cy="63" r="9" fill="#17100e"/></g>
  <rect width="1200" height="720" filter="url(#grain)" opacity=".44"/><rect width="1200" height="720" fill="url(#vignette)"/>
</svg>
