<svg xmlns="http://www.w3.org/2000/svg" viewBox="35 30 150 190"><defs><linearGradient id="skin" x1="0" x2="1"><stop stop-color="#a86b52"/><stop offset=".5" stop-color="#edbd93"/><stop offset="1" stop-color="#8b553f"/></linearGradient><linearGradient id="jacket" x1="0" x2="1"><stop stop-color="#1d2519"/><stop offset=".5" stop-color="#566246"/><stop offset="1" stop-color="#151b12"/></linearGradient><linearGradient id="denim" x1="0" x2="1"><stop stop-color="#17202a"/><stop offset=".5" stop-color="#3f5667"/><stop offset="1" stop-color="#10151b"/></linearGradient><radialGradient id="hair" cx="48%" cy="20%" r="72%"><stop stop-color="#76533f"/><stop offset=".5" stop-color="#2a1915"/><stop offset="1" stop-color="#100807"/></radialGradient></defs><ellipse cx="110" cy="362" rx="78" ry="17" fill="#050303" opacity=".38"/><path d="M70 143c-22 48-26 100-18 163h116c9-63 3-116-18-163-23-19-58-22-80 0z" fill="url(#jacket)"/><path d="M86 146l25 72 28-72" fill="#ead9bd"/><path d="M110 214v88" stroke="#1b2118" stroke-width="5"/><path d="M61 166c-29 35-38 81-29 129l28-7c-3-38 6-70 26-94zM159 166c29 35 38 81 29 129l-28-7c3-38-6-70-26-94z" fill="#2c3a28"/><path d="M64 288l40 3-11 61H59zM116 291l40-3 8 64h-34z" fill="url(#denim)"/><path d="M52 346h47v22H48c-7-9-5-17 4-22zM122 346h49v22h-56c-5-8-2-17 7-22z" fill="#17100c"/><path d="M74 48c-35 18-44 63-30 111 20 12 96 12 122 0 18-53 2-97-36-111-14-11-41-11-56 0z" fill="url(#hair)"/><path d="M61 82c-5 43 11 82 50 85 39-2 56-42 49-85-19-17-77-19-99 0z" fill="url(#skin)"/><path d="M69 82c22-15 56-18 86 0-9-42-70-50-86 0z" fill="#21110e"/><g fill="#21130f"><ellipse cx="91" cy="112" rx="5" ry="7"/><ellipse cx="128" cy="112" rx="5" ry="7"/></g><path d="M109 119l-6 19h13" fill="none" stroke="#84503e" stroke-width="3" stroke-linecap="round"/><path d="M94 146c10 9 24 10 35 0" fill="none" stroke="#7b3b3b" stroke-width="4" stroke-linecap="round"/><path d="M68 105c14-11 27-14 41-13M119 92c16-2 30 2 41 13" stroke="#26150f" stroke-width="6" stroke-linecap="round" opacity=".75"/><path d="M151 211c18 17 24 45 15 82" stroke="#8a5b2d" stroke-width="24" stroke-linecap="round"/><rect x="144" y="256" width="50" height="56" rx="9" fill="#8d5d31" stroke="#3b2115" stroke-width="5"/><path d="M54 242c12 16 22 25 41 31" stroke="#d9a27b" stroke-width="15" stroke-linecap="round"/><path d="M159 241c-12 16-22 25-40 31" stroke="#d9a27b" stroke-width="15" stroke-linecap="round"/></svg>