<svg xmlns="http://www.w3.org/2000/svg" viewBox="0 0 260 260">
  <defs><radialGradient id="bg" cx="50%" cy="22%" r="80%"><stop stop-color="#ffe0a2"/><stop offset=".55" stop-color="#70462d"/><stop offset="1" stop-color="#1a0f0b"/></radialGradient><linearGradient id="skin" x1="0" x2="1"><stop stop-color="#a66a50"/><stop offset=".45" stop-color="#efc09a"/><stop offset="1" stop-color="#8a5140"/></linearGradient></defs>
  <rect width="260" height="260" fill="url(#bg)"/><ellipse cx="130" cy="250" rx="94" ry="88" fill="#46553a"/><path d="M70 58c-45 35-40 121 0 153 22 15 98 15 120-1 40-47 25-127-8-151-29-25-84-25-112-1z" fill="#1e1211"/><path d="M78 88c-8 70 19 113 52 115 36-2 64-47 54-116-27-25-77-25-106 1z" fill="url(#skin)"/><path d="M78 91c39-25 72-20 109 0-9-57-95-72-109 0z" fill="#2a1916"/><ellipse cx="110" cy="129" rx="7" ry="9" fill="#21140f"/><ellipse cx="152" cy="129" rx="7" ry="9" fill="#21140f"/><path d="M131 138l-7 23h13" fill="none" stroke="#7d4938" stroke-width="4" stroke-linecap="round"/><path d="M108 177c18 15 35 15 52 0" fill="none" stroke="#7a3436" stroke-width="6" stroke-linecap="round"/><path d="M91 115c20-12 38-14 56-12M132 104c24-2 42 3 57 14" fill="none" stroke="#211412" stroke-width="8" stroke-linecap="round" opacity=".75"/>
</svg>
