<svg xmlns="http://www.w3.org/2000/svg" viewBox="0 0 260 460" role="img" aria-label="Bonnie adventure game sprite with idle stance and walk-ready side profile">
  <defs>
    <linearGradient id="skin" x1="0" x2="1"><stop stop-color="#9b5f48"/><stop offset=".45" stop-color="#efc29a"/><stop offset=".74" stop-color="#c48766"/><stop offset="1" stop-color="#704332"/></linearGradient>
    <linearGradient id="coat" x1="0" x2="1"><stop stop-color="#151b12"/><stop offset=".24" stop-color="#2b3b28"/><stop offset=".55" stop-color="#687452"/><stop offset=".82" stop-color="#2f3a27"/><stop offset="1" stop-color="#10150e"/></linearGradient>
    <linearGradient id="shirt" y1="0" y2="1"><stop stop-color="#fff2d1"/><stop offset="1" stop-color="#c9ad80"/></linearGradient>
    <linearGradient id="denim" x1="0" x2="1"><stop stop-color="#101923"/><stop offset=".52" stop-color="#4e6575"/><stop offset="1" stop-color="#0b1118"/></linearGradient>
    <linearGradient id="leather" x1="0" x2="1"><stop stop-color="#442416"/><stop offset=".52" stop-color="#a56b35"/><stop offset="1" stop-color="#2a150d"/></linearGradient>
    <radialGradient id="hair" cx="50%" cy="20%" r="78%"><stop stop-color="#7d5b47"/><stop offset=".42" stop-color="#332018"/><stop offset="1" stop-color="#110807"/></radialGradient>
    <filter id="softShadow" x="-30%" y="-20%" width="160%" height="150%"><feDropShadow dx="8" dy="16" stdDeviation="8" flood-color="#050303" flood-opacity=".42"/></filter>
  </defs>
  <ellipse cx="132" cy="432" rx="82" ry="18" fill="#040202" opacity=".38"/>
  <ellipse cx="132" cy="426" rx="50" ry="9" fill="#160b07" opacity=".3"/>
  <g filter="url(#softShadow)">
    <path d="M82 184c-27 58-32 137-20 214h136c12-77 7-156-22-214-28-22-68-24-94 0z" fill="url(#coat)"/>
    <path d="M78 184c24-18 79-23 106 0" fill="none" stroke="#c8d0a0" stroke-width="5" opacity=".18" stroke-linecap="round"/>
    <path d="M95 178l35 104 36-104c-20-12-50-12-71 0z" fill="url(#shirt)"/>
    <path d="M130 278v106" stroke="#172015" stroke-width="6" opacity=".72"/>
    <path d="M82 198c-30 42-42 96-32 158l31-8c-5-51 5-92 30-124z" fill="#24321f"/>
    <path d="M178 198c30 42 42 96 32 158l-31-8c5-51-5-92-30-124z" fill="#24321f"/>
    <path d="M52 348c14 20 34 35 56 44" stroke="url(#skin)" stroke-width="18" stroke-linecap="round"/>
    <path d="M207 348c-13 20-33 35-56 44" stroke="url(#skin)" stroke-width="18" stroke-linecap="round"/>
    <path d="M83 350l47 3-10 78H75z" fill="url(#denim)"/>
    <path d="M140 353l46-3 10 81h-44z" fill="url(#denim)"/>
    <path d="M99 354c-5 24-7 50-6 74M165 354c7 24 10 50 10 74" stroke="#d3e0ee" stroke-width="3" opacity=".14"/>
    <path d="M64 424h58v24H58c-9-10-6-20 6-24z" fill="#120c09"/>
    <path d="M146 424h61v24h-69c-7-10-3-20 8-24z" fill="#120c09"/>
    <path d="M173 254c19 21 24 59 13 104" stroke="#7d4e25" stroke-width="20" stroke-linecap="round" fill="none"/>
    <rect x="164" y="312" width="58" height="61" rx="10" fill="url(#leather)" stroke="#2b160d" stroke-width="5"/>
    <path d="M176 326h34M175 347h36" stroke="#d4a968" stroke-width="3" opacity=".45"/>
    <path d="M74 64c-39 22-50 75-35 129 28 17 118 17 149 0 19-59 0-111-43-129-18-14-53-14-71 0z" fill="url(#hair)"/>
    <path d="M57 107c-7 50 14 96 72 101 58-5 77-51 71-101-28-23-115-23-143 0z" fill="url(#skin)"/>
    <path d="M64 107c29-23 82-25 128 0-9-57-105-68-128 0z" fill="#21110d"/>
    <path d="M48 142c-15 2-15 31 4 36M207 142c15 2 15 31-4 36" fill="#bf8263"/>
    <g fill="#20120e"><ellipse cx="105" cy="147" rx="5.8" ry="8"/><ellipse cx="151" cy="147" rx="5.8" ry="8"/></g>
    <path d="M128 153l-8 24h15" fill="none" stroke="#84503e" stroke-width="3.5" stroke-linecap="round"/>
    <path d="M108 188c13 10 29 11 43 0" fill="none" stroke="#7f3838" stroke-width="5" stroke-linecap="round"/>
    <path d="M82 130c18-13 34-17 51-14M141 116c21-3 38 2 52 15" stroke="#25130e" stroke-width="7" stroke-linecap="round" opacity=".72"/>
    <path d="M80 232c22 8 76 8 100 0" stroke="#819067" stroke-width="4" opacity=".45"/>
    <circle cx="130" cy="248" r="4" fill="#d7b46a"/><circle cx="130" cy="278" r="4" fill="#d7b46a"/><circle cx="130" cy="308" r="4" fill="#d7b46a"/>
    <path d="M183 183c29 62 34 142 22 220" stroke="#f4c36d" stroke-width="4" opacity=".18" fill="none"/>
    <path d="M67 98c15-26 50-39 91-30" stroke="#f7d390" stroke-width="5" opacity=".16" fill="none"/>
  </g>
</svg>
