<svg xmlns="http://www.w3.org/2000/svg" viewBox="0 0 220 360" preserveAspectRatio="xMidYMid meet" role="img" aria-label="Semi-realistic adventure game Bonnie character lit by warm antique-shop lamplight">
  <defs>
    <filter id="skinTexture"><feTurbulence type="fractalNoise" baseFrequency="1.15" numOctaves="3" seed="47"/><feColorMatrix type="saturate" values="0"/><feComponentTransfer><feFuncA type="table" tableValues="0 .045"/></feComponentTransfer></filter>
    <filter id="clothTexture"><feTurbulence type="fractalNoise" baseFrequency=".72" numOctaves="4" seed="53"/><feColorMatrix type="saturate" values=".2"/><feComponentTransfer><feFuncA type="table" tableValues="0 .11"/></feComponentTransfer></filter>
    <linearGradient id="skin" x1="18" y1="76" x2="174" y2="149" gradientUnits="userSpaceOnUse"><stop stop-color="#6f3c31"/><stop offset=".2" stop-color="#bf7b5f"/><stop offset=".44" stop-color="#e8b58f"/><stop offset=".62" stop-color="#f0c39e"/><stop offset=".8" stop-color="#aa654f"/><stop offset="1" stop-color="#4d2924"/></linearGradient>
    <radialGradient id="cheek" cx="42%" cy="54%" r="48%"><stop stop-color="#e49a7e" stop-opacity=".36"/><stop offset="1" stop-color="#e49a7e" stop-opacity="0"/></radialGradient>
    <radialGradient id="hair" cx="43%" cy="24%" r="76%"><stop stop-color="#83624e"/><stop offset=".32" stop-color="#3d2822"/><stop offset=".72" stop-color="#1a100e"/><stop offset="1" stop-color="#080504"/></radialGradient>
    <linearGradient id="coat" x1="18" y1="195" x2="186" y2="198" gradientUnits="userSpaceOnUse"><stop stop-color="#08100a"/><stop offset=".25" stop-color="#263927"/><stop offset=".48" stop-color="#4a603f"/><stop offset=".72" stop-color="#22311f"/><stop offset="1" stop-color="#070b07"/></linearGradient>
    <linearGradient id="linen" x1="72" y1="140" x2="139" y2="177" gradientUnits="userSpaceOnUse"><stop stop-color="#7f6b52"/><stop offset=".46" stop-color="#ead5a8"/><stop offset="1" stop-color="#70563c"/></linearGradient>
    <linearGradient id="leather" x1="122" y1="221" x2="175" y2="255" gradientUnits="userSpaceOnUse"><stop stop-color="#1d0d08"/><stop offset=".5" stop-color="#8a5a35"/><stop offset="1" stop-color="#120704"/></linearGradient>
    <linearGradient id="boot" x1="40" y1="326" x2="198" y2="337" gradientUnits="userSpaceOnUse"><stop stop-color="#090504"/><stop offset=".5" stop-color="#382117"/><stop offset="1" stop-color="#080403"/></linearGradient>
  </defs>

  <ellipse cx="111" cy="337" rx="83" ry="17" fill="#020101" opacity=".56"/>
  <g stroke-linecap="round" stroke-linejoin="round">
    <path d="M84 211c-10 42-13 78-20 116" stroke="#15100d" stroke-width="22"/>
    <path d="M129 211c8 40 17 77 28 115" stroke="#17100d" stroke-width="22"/>
    <path d="M43 332c25 8 49 7 66-4" stroke="url(#boot)" stroke-width="20"/>
    <path d="M131 329c21 10 46 12 67 5" stroke="url(#boot)" stroke-width="20"/>

    <path d="M63 122c-27 55-31 109-9 164 34 24 85 25 118-2 18-61 9-116-17-163-24-18-68-19-92 1z" fill="url(#coat)" stroke="#090604" stroke-width="5"/>
    <path d="M84 130l27 61 28-61" fill="url(#linen)" stroke="#261810" stroke-width="4"/>
    <path d="M84 130c6 41 3 96-10 148M139 130c-4 43 0 95 13 147" stroke="#0c120d" stroke-width="4" opacity=".65"/>
    <path d="M88 158c14 9 32 9 47 0M84 214c18 10 46 11 66 0M70 254c30 15 63 15 94 0" stroke="#ead6aa" stroke-width="3" opacity=".18"/>
    <rect x="54" y="122" width="120" height="165" filter="url(#clothTexture)" opacity=".75"/>

    <path d="M62 139c-27 31-36 70-30 112" stroke="#233521" stroke-width="22"/>
    <path d="M156 139c28 34 35 72 27 112" stroke="#1c2b1c" stroke-width="22"/>
    <path d="M34 251c6 8 15 10 24 4" stroke="url(#skin)" stroke-width="14"/>
    <path d="M164 252c7 8 16 9 24 2" stroke="url(#skin)" stroke-width="14"/>
    <path d="M74 147c34 28 62 63 85 101" stroke="#51301d" stroke-width="8" opacity=".9"/>
    <rect x="124" y="216" width="49" height="45" rx="9" fill="url(#leather)" stroke="#150805" stroke-width="4"/>
    <path d="M131 230h34" stroke="#c79a54" stroke-width="3" opacity=".52"/>

    <path d="M66 39c-22 31-22 74-2 101 22 29 76 30 100 0 20-27 19-72-4-101-25-28-69-28-94 0z" fill="url(#hair)"/>
    <path d="M70 72c-7 50 12 82 40 84 31 1 54-34 47-86-24-18-62-18-87 2z" fill="url(#skin)" stroke="#47251c" stroke-width="3"/>
    <path d="M70 96c5 33 20 55 42 57 20 0 37-15 44-43-7 39-25 62-47 61-25-2-42-30-39-75z" fill="#4b241d" opacity=".16"/>
    <path d="M76 126c8 15 20 23 36 23 15 0 28-8 38-24-7 28-23 44-40 44-17-1-31-16-34-43z" fill="#f0c8a6" opacity=".18"/>
    <ellipse cx="95" cy="133" rx="16" ry="13" fill="url(#cheek)"/>
    <ellipse cx="137" cy="133" rx="17" ry="13" fill="url(#cheek)" opacity=".65"/>
    <path d="M69 84c26-22 59-25 91-7-4-43-79-57-91 7z" fill="#1b100d"/>
    <path d="M58 94c-7 35-2 60 18 78M164 92c6 35 0 61-21 80" stroke="#1b100e" stroke-width="18" opacity=".9"/>
    <path d="M86 107c10-6 20-6 29-2M123 105c12-4 23-3 33 5" stroke="#2d1711" stroke-width="5" opacity=".72"/>
    <ellipse cx="99" cy="121" rx="4.2" ry="6.1" fill="#140a07"/><ellipse cx="136" cy="121" rx="4.2" ry="6.1" fill="#140a07"/>
    <circle cx="100" cy="118" r="1.2" fill="#fff1ce" opacity=".8"/><circle cx="137" cy="118" r="1.2" fill="#fff1ce" opacity=".75"/>
    <path d="M118 127l-6 18 12 1" fill="none" stroke="#6c362a" stroke-width="3"/>
    <path d="M101 158c14 8 28 8 42 0" fill="none" stroke="#773232" stroke-width="4"/>
    <path d="M74 88c28-20 58-24 85-9" stroke="#755542" stroke-width="7" opacity=".55"/>
    <rect x="67" y="69" width="93" height="104" filter="url(#skinTexture)" opacity=".95"/>
  </g>
</svg>
