<svg xmlns="http://www.w3.org/2000/svg" viewBox="0 0 180 240" preserveAspectRatio="xMidYMid slice" role="img" aria-label="Cinematic dialogue portrait of Bonnie">
  <defs>
    <linearGradient id="skin" x1="0" x2="1"><stop stop-color="#8a513d"/><stop offset=".38" stop-color="#e6ab86"/><stop offset=".62" stop-color="#f1c39f"/><stop offset="1" stop-color="#7a4032"/></linearGradient>
    <radialGradient id="hair" cx="45%" cy="20%" r="75%"><stop stop-color="#76523f"/><stop offset=".42" stop-color="#32201a"/><stop offset="1" stop-color="#100908"/></radialGradient>
  </defs>
  <rect width="180" height="240" fill="#180d09"/>
  <ellipse cx="88" cy="214" rx="86" ry="34" fill="#050303" opacity=".55"/>
  <path d="M38 142c-20 28-27 61-24 98h154c3-38-7-74-29-99-27-20-73-20-101 1z" fill="#253522"/>
  <path d="M62 150l29 52 32-52" fill="#e6d3a6"/>
  <path d="M36 45c-28 35-29 86-5 122 27 32 91 32 118 0 24-36 23-88-7-122-29-30-78-30-106 0z" fill="url(#hair)"/>
  <path d="M46 79c-8 58 14 96 44 99 34 1 58-40 49-99-25-19-67-19-93 0z" fill="url(#skin)"/>
  <path d="M45 91c28-24 65-27 96-8-5-50-88-64-96 8z" fill="#1b100d"/>
  <ellipse cx="73" cy="123" rx="5" ry="7" fill="#170b07"/><ellipse cx="111" cy="123" rx="5" ry="7" fill="#170b07"/>
  <path d="M61 109c14-8 28-9 42-4M101 105c18-3 33 0 45 8" stroke="#2b1711" stroke-width="5" stroke-linecap="round" opacity=".76"/>
  <path d="M92 131l-7 21h13" fill="none" stroke="#71392e" stroke-width="3"/>
  <path d="M72 166c14 10 29 11 45 0" fill="none" stroke="#763132" stroke-width="4" stroke-linecap="round"/>
  <path d="M52 61c27-23 58-28 91-8" stroke="#735340" stroke-width="7" opacity=".45"/>
  <rect width="180" height="240" fill="url(#vig)"/>
  <defs><radialGradient id="vig" cx="48%" cy="44%" r="74%"><stop stop-color="#000" stop-opacity="0"/><stop offset=".68" stop-color="#000" stop-opacity=".14"/><stop offset="1" stop-color="#000" stop-opacity=".72"/></radialGradient></defs>
</svg>
