<svg xmlns="http://www.w3.org/2000/svg" viewBox="0 0 260 430" role="img" aria-label="Bonnie adventure game sprite">
  <defs>
    <linearGradient id="skin" x1="0" x2="1"><stop stop-color="#9b5f48"/><stop offset=".45" stop-color="#efc29a"/><stop offset=".74" stop-color="#c48766"/><stop offset="1" stop-color="#704332"/></linearGradient>
    <linearGradient id="coat" x1="0" x2="1"><stop stop-color="#151b12"/><stop offset=".24" stop-color="#2b3b28"/><stop offset=".55" stop-color="#687452"/><stop offset=".82" stop-color="#2f3a27"/><stop offset="1" stop-color="#10150e"/></linearGradient>
    <linearGradient id="shirt" y1="0" y2="1"><stop stop-color="#fff2d1"/><stop offset="1" stop-color="#c9ad80"/></linearGradient>
    <linearGradient id="denim" x1="0" x2="1"><stop stop-color="#101923"/><stop offset=".52" stop-color="#4e6575"/><stop offset="1" stop-color="#0b1118"/></linearGradient>
    <linearGradient id="leather" x1="0" x2="1"><stop stop-color="#442416"/><stop offset=".52" stop-color="#a56b35"/><stop offset="1" stop-color="#2a150d"/></linearGradient>
    <radialGradient id="hair" cx="50%" cy="20%" r="78%"><stop stop-color="#7d5b47"/><stop offset=".42" stop-color="#332018"/><stop offset="1" stop-color="#110807"/></radialGradient>
    <filter id="softShadow" x="-30%" y="-20%" width="160%" height="150%"><feDropShadow dx="8" dy="16" stdDeviation="8" flood-color="#050303" flood-opacity=".42"/></filter>
  </defs>
  <ellipse cx="132" cy="404" rx="82" ry="18" fill="#040202" opacity=".38"/>
  <g filter="url(#softShadow)">
    <path d="M82 178c-30 56-36 128-24 202h143c12-74 6-146-25-202-28-24-69-27-94 0z" fill="url(#coat)"/>
    <path d="M94 174l36 94 37-94c-20-13-51-13-73 0z" fill="url(#shirt)"/>
    <path d="M130 266v92" stroke="#172015" stroke-width="6" opacity=".72"/>
    <path d="M82 192c-31 39-45 91-34 150l34-8c-6-48 5-88 30-119z" fill="#24321f"/>
    <path d="M178 192c31 39 45 91 34 150l-34-8c6-48-5-88-30-119z" fill="#24321f"/>
    <path d="M52 334c14 20 34 34 57 42" stroke="url(#skin)" stroke-width="18" stroke-linecap="round"/>
    <path d="M207 334c-13 20-33 34-57 42" stroke="url(#skin)" stroke-width="18" stroke-linecap="round"/>
    <path d="M83 331l48 4-12 70H75z" fill="url(#denim)"/>
    <path d="M139 335l47-4 10 74h-44z" fill="url(#denim)"/>
    <path d="M64 396h58v24H58c-9-10-6-20 6-24z" fill="#120c09"/>
    <path d="M146 396h61v24h-69c-7-10-3-20 8-24z" fill="#120c09"/>
    <path d="M173 242c19 20 25 54 14 96" stroke="#7d4e25" stroke-width="20" stroke-linecap="round" fill="none"/>
    <rect x="164" y="294" width="58" height="61" rx="10" fill="url(#leather)" stroke="#2b160d" stroke-width="5"/>
    <path d="M176 308h34M175 329h36" stroke="#d4a968" stroke-width="3" opacity=".45"/>
    <path d="M74 67c-41 21-53 75-36 133 27 16 119 16 150 0 21-63 0-115-43-133-18-15-53-15-71 0z" fill="url(#hair)"/>
    <path d="M56 108c-7 52 14 99 73 104 59-5 78-52 72-104-27-24-116-24-145 0z" fill="url(#skin)"/>
    <path d="M64 107c29-23 82-25 128 0-9-57-105-68-128 0z" fill="#21110d"/>
    <path d="M48 142c-15 2-15 31 4 36M207 142c15 2 15 31-4 36" fill="#bf8263"/>
    <g fill="#20120e"><ellipse cx="105" cy="147" rx="5.8" ry="8"/><ellipse cx="151" cy="147" rx="5.8" ry="8"/></g>
    <path d="M128 153l-8 24h15" fill="none" stroke="#84503e" stroke-width="3.5" stroke-linecap="round"/>
    <path d="M108 188c13 10 29 11 43 0" fill="none" stroke="#7f3838" stroke-width="5" stroke-linecap="round"/>
    <path d="M82 130c18-13 34-17 51-14M141 116c21-3 38 2 52 15" stroke="#25130e" stroke-width="7" stroke-linecap="round" opacity=".72"/>
    <path d="M80 224c22 8 76 8 100 0" stroke="#819067" stroke-width="4" opacity=".45"/>
    <circle cx="130" cy="237" r="4" fill="#d7b46a"/><circle cx="130" cy="264" r="4" fill="#d7b46a"/><circle cx="130" cy="291" r="4" fill="#d7b46a"/>
  </g>
</svg>
