<svg xmlns="http://www.w3.org/2000/svg" viewBox="0 0 170 300">
  <defs><linearGradient id="skin" x1="0" x2="1"><stop stop-color="#a96b51"/><stop offset=".55" stop-color="#e4b18b"/><stop offset="1" stop-color="#8e5841"/></linearGradient><linearGradient id="dress" x1="0" x2="1"><stop stop-color="#2a1412"/><stop offset=".5" stop-color="#875040"/><stop offset="1" stop-color="#21100e"/></linearGradient><radialGradient id="hair" cx="50%" cy="18%" r="70%"><stop stop-color="#eee7db"/><stop offset=".45" stop-color="#81776b"/><stop offset="1" stop-color="#4d4742"/></radialGradient></defs>
  <ellipse cx="85" cy="286" rx="58" ry="12" fill="#080504" opacity=".34"/>
  <path d="M43 126c-18 42-21 90-13 149h110c8-59 5-107-13-149-23-20-62-21-84 0z" fill="url(#dress)"/>
  <path d="M55 134l30 47 28-47" fill="#eabf88" opacity=".85"/><path d="M38 157c-21 28-24 66-16 101l24-6c-2-32 4-55 17-75zM132 157c21 28 24 66 16 101l-24-6c2-32-4-55-17-75z" fill="#5d342c"/>
  <path d="M41 49c-23 28-24 77-1 109 16 15 73 16 91 0 23-32 22-80-1-109-24-24-65-24-89 0z" fill="url(#hair)"/>
  <path d="M45 72c-7 51 14 86 40 87 29-1 50-37 42-87-22-17-59-17-82 0z" fill="url(#skin)"/>
  <path d="M42 80c25-18 60-20 87-2-3-42-77-55-87 2z" fill="#d8cebc"/><ellipse cx="70" cy="104" rx="5" ry="7" fill="#24150f"/><ellipse cx="101" cy="104" rx="5" ry="7" fill="#24150f"/><path d="M86 112l-4 18h9" fill="none" stroke="#794638" stroke-width="3"/><path d="M71 141c10 9 21 9 32 0" fill="none" stroke="#7a3436" stroke-width="4" stroke-linecap="round"/><path d="M55 94c15-8 28-10 40-8M87 86c17-1 31 2 42 10" stroke="#5f574f" stroke-width="6" stroke-linecap="round" opacity=".75"/>
</svg>
