<svg xmlns="http://www.w3.org/2000/svg" viewBox="0 0 190 310"><defs><linearGradient id="skin" x1="0" x2="1"><stop stop-color="#9b6149"/><stop offset=".5" stop-color="#e5b28d"/><stop offset="1" stop-color="#835039"/></linearGradient><linearGradient id="dress" x1="0" x2="1"><stop stop-color="#24100e"/><stop offset=".52" stop-color="#915646"/><stop offset="1" stop-color="#1a0c0a"/></linearGradient><radialGradient id="hair" cx="50%" cy="18%" r="72%"><stop stop-color="#f0e8db"/><stop offset=".48" stop-color="#80766a"/><stop offset="1" stop-color="#443d37"/></radialGradient></defs><ellipse cx="95" cy="296" rx="66" ry="13" fill="#050303" opacity=".34"/><path d="M45 132c-20 42-25 98-16 151h132c8-57 3-109-18-151-24-22-74-23-98 0z" fill="url(#dress)"/><path d="M59 139l36 52 34-52" fill="#eac18f"/><path d="M40 160c-24 28-28 70-19 108l28-7c-3-35 5-60 20-81zM150 160c24 28 28 70 19 108l-28-7c3-35-5-60-20-81z" fill="#5d342c"/><path d="M42 48c-27 30-29 81-3 115 20 18 91 18 112 0 27-35 25-87-3-115-29-25-77-25-106 0z" fill="url(#hair)"/><path d="M50 76c-8 53 15 88 45 90 32-1 55-39 46-90-25-18-67-18-91 0z" fill="url(#skin)"/><path d="M48 85c27-20 69-22 96-3-4-48-89-59-96 3z" fill="#d7cfc3"/><ellipse cx="77" cy="109" rx="5" ry="7" fill="#21120c"/><ellipse cx="112" cy="109" rx="5" ry="7" fill="#21120c"/><path d="M95 117l-5 18h10" fill="none" stroke="#794638" stroke-width="3"/><path d="M77 146c12 9 25 10 37 0" fill="none" stroke="#783638" stroke-width="4" stroke-linecap="round"/><path d="M60 99c16-8 32-10 45-8M97 91c18-1 35 2 47 10" stroke="#5f574f" stroke-width="6" stroke-linecap="round" opacity=".75"/></svg>